<?xml version="1.0" standalone="no"?>
<!DOCTYPE svg PUBLIC "-//W3C//DTD SVG 20010904//EN"
 "http://www.w3.org/TR/2001/REC-SVG-20010904/DTD/svg10.dtd">
<svg version="1.0" xmlns="http://www.w3.org/2000/svg"
 width="1080.000000pt" height="223.000000pt" viewBox="0 0 1080.000000 223.000000"
 preserveAspectRatio="xMidYMid meet">

<g transform="translate(0.000000,223.000000) scale(0.100000,-0.100000)"
fill="#000000" stroke="none">
<path d="M351 2206 c-26 -14 -50 -51 -51 -77 0 -11 -15 -20 -43 -28 -57 -14
-95 -45 -118 -95 -16 -35 -19 -68 -19 -237 l0 -196 -37 -24 c-58 -37 -77 -80
-76 -164 7 -329 267 -622 596 -670 l47 -7 0 -77 c0 -239 147 -462 373 -566
107 -49 153 -55 415 -55 268 0 309 6 432 67 100 50 222 170 272 268 67 130 71
152 76 448 l4 267 26 6 c113 24 190 62 266 133 110 102 166 231 166 380 0 154
-46 266 -151 372 -317 319 -856 115 -886 -336 -17 -257 163 -493 414 -546 l55
-11 -4 -251 c-4 -241 -6 -255 -31 -326 -49 -138 -144 -246 -271 -307 -104 -50
-150 -56 -404 -52 -203 4 -233 7 -286 26 -207 77 -338 253 -353 473 l-6 85 84
17 c151 29 310 126 404 245 91 114 155 287 155 418 0 73 -29 136 -76 164 l-34
22 0 173 c0 96 -5 197 -11 225 -14 65 -61 115 -124 131 -36 9 -45 16 -50 40
-4 16 -20 40 -37 54 -26 22 -39 25 -104 25 -82 0 -113 -11 -156 -57 -58 -62
-59 -154 -2 -223 40 -47 74 -60 157 -60 86 0 118 17 138 75 15 39 28 44 52 17
15 -16 17 -46 17 -210 l0 -191 -30 -16 c-49 -25 -78 -80 -86 -160 -10 -115
-66 -218 -147 -273 -67 -46 -123 -63 -202 -63 -190 0 -330 131 -354 333 -10
89 -31 129 -84 164 l-39 25 4 188 c3 197 9 221 49 221 13 0 19 -7 19 -21 0
-12 15 -36 34 -55 32 -32 37 -34 106 -34 86 0 130 18 168 68 23 30 27 45 27
103 0 75 -16 106 -75 147 -27 18 -46 22 -109 22 -44 -1 -86 -6 -100 -14z m159
-116 c43 -43 9 -100 -60 -100 l-40 0 0 60 0 60 40 0 c27 0 47 -7 60 -20z m490
-40 l0 -60 -38 0 c-48 0 -82 23 -82 57 0 41 27 63 77 63 l43 0 0 -60z m1332
-94 c87 -42 152 -105 195 -194 36 -73 38 -80 38 -176 -1 -129 -24 -192 -100
-275 -165 -177 -423 -185 -591 -17 -180 181 -155 479 53 623 84 58 142 74 253
70 79 -3 105 -8 152 -31z m-2117 -511 c19 -18 25 -35 25 -69 0 -148 116 -318
264 -387 282 -132 606 38 656 343 19 116 19 118 46 130 21 10 29 8 52 -9 25
-19 27 -25 25 -89 -8 -246 -208 -476 -458 -529 -88 -19 -151 -19 -240 0 -218
46 -399 222 -450 437 -21 91 -20 153 5 178 26 26 46 25 75 -5z"/>
<path d="M9361 1333 c-55 -47 -24 -133 48 -133 47 0 71 24 71 73 0 66 -70 100
-119 60z"/>
<path d="M3140 830 l0 -440 183 0 c206 0 264 10 362 64 116 63 183 180 192
336 15 245 -109 418 -336 466 -41 8 -128 14 -233 14 l-168 0 0 -440z m430 322
c63 -25 127 -84 159 -149 49 -97 46 -270 -6 -366 -63 -114 -160 -157 -354
-157 l-119 0 0 351 0 351 133 -4 c103 -4 144 -9 187 -26z"/>
<path d="M6070 834 c-85 -234 -156 -430 -158 -435 -2 -5 23 -9 56 -9 l60 0 33
95 34 95 196 0 197 0 33 -95 34 -95 58 0 c31 0 57 3 57 6 0 5 -284 792 -305
847 -6 14 -20 17 -74 17 l-67 0 -154 -426z m376 -151 c-2 -2 -73 -2 -158 -1
l-156 3 74 205 c41 113 77 212 80 220 3 8 41 -83 85 -204 43 -121 77 -221 75
-223z"/>
<path d="M10507 1253 c-4 -3 -7 -44 -7 -90 l0 -83 -45 0 -45 0 0 -45 0 -45 44
0 45 0 3 -247 c3 -226 5 -251 23 -281 31 -51 86 -72 188 -72 l87 0 0 45 0 45
-60 0 c-78 0 -108 14 -121 59 -6 22 -9 119 -7 241 l3 205 93 3 92 3 0 44 0 45
-95 0 -95 0 0 90 0 90 -48 0 c-27 0 -52 -3 -55 -7z"/>
<path d="M4235 1076 c-61 -19 -96 -40 -138 -83 -137 -136 -139 -383 -3 -519
68 -67 138 -94 246 -94 111 0 178 27 251 99 79 79 102 144 97 271 -4 119 -34
186 -109 254 -84 75 -234 107 -344 72z m212 -107 c195 -95 168 -424 -40 -484
-162 -47 -295 61 -297 240 0 119 41 199 123 240 66 32 152 34 214 4z"/>
<path d="M5034 1074 c-81 -25 -143 -79 -184 -158 -34 -67 -35 -72 -35 -185 1
-132 15 -178 81 -251 60 -66 122 -93 230 -98 116 -5 174 12 243 74 45 40 91
112 91 142 0 8 -20 12 -59 12 -53 0 -60 -2 -66 -22 -4 -13 -19 -36 -34 -52
-79 -87 -232 -87 -313 0 -80 86 -89 274 -18 373 88 121 297 112 357 -15 16
-33 19 -34 75 -34 32 0 58 4 58 9 0 5 -7 25 -15 45 -24 56 -89 121 -148 147
-67 29 -190 35 -263 13z"/>
<path d="M7110 1081 c-53 -17 -108 -51 -138 -85 -17 -20 -34 -36 -37 -36 -3 0
-5 27 -5 60 l0 60 -55 0 -55 0 0 -510 0 -510 55 0 55 0 0 227 0 227 41 -43
c63 -65 127 -91 224 -91 135 0 226 57 293 183 25 48 27 60 27 172 0 105 -3
126 -23 166 -60 120 -151 180 -281 185 -42 2 -87 0 -101 -5z m167 -112 c139
-67 177 -285 72 -412 -107 -129 -310 -103 -385 50 -50 102 -34 235 39 312 68
71 186 93 274 50z"/>
<path d="M7948 1074 c-29 -9 -67 -33 -102 -65 l-56 -51 0 61 0 61 -55 0 -55 0
0 -510 0 -510 55 0 55 0 0 227 0 226 38 -41 c21 -23 64 -53 96 -68 52 -24 67
-26 144 -22 72 3 96 9 140 33 65 35 106 81 141 155 23 49 26 67 26 166 0 107
-1 113 -35 180 -73 143 -232 207 -392 158z m175 -99 c95 -39 141 -117 141
-240 1 -67 -3 -89 -25 -130 -49 -96 -155 -146 -258 -124 -68 14 -120 55 -156
120 -25 46 -29 65 -29 129 -1 117 47 199 139 241 49 23 139 25 188 4z"/>
<path d="M8754 1081 c-104 -27 -197 -110 -234 -209 -19 -48 -21 -73 -18 -157
5 -119 27 -175 98 -246 67 -67 139 -92 255 -87 106 4 177 32 238 94 107 107
133 293 63 433 -30 58 -102 126 -164 154 -51 22 -182 32 -238 18z m184 -107
c47 -19 88 -58 115 -109 30 -54 31 -202 3 -255 -102 -193 -373 -177 -432 26
-41 144 13 289 126 338 46 20 141 20 188 0z"/>
<path d="M9920 1081 c-42 -13 -84 -38 -109 -65 -14 -14 -27 -26 -30 -26 -3 0
-6 19 -6 42 l0 43 -57 3 -58 3 0 -346 0 -345 59 0 60 0 1 227 c1 257 7 287 75
338 63 49 187 48 246 -2 63 -53 69 -82 69 -335 l0 -228 56 0 55 0 -3 258 c-3
286 -4 289 -76 365 -61 63 -192 95 -282 68z"/>
<path d="M9350 735 l0 -345 55 0 55 0 0 345 0 345 -55 0 -55 0 0 -345z"/>
</g>
</svg>
