<?xml version="1.0" standalone="no"?>
<!DOCTYPE svg PUBLIC "-//W3C//DTD SVG 20010904//EN"
 "http://www.w3.org/TR/2001/REC-SVG-20010904/DTD/svg10.dtd">
<svg version="1.0" xmlns="http://www.w3.org/2000/svg"
 width="337.000000pt" height="279.000000pt" viewBox="0 0 337.000000 279.000000"
 preserveAspectRatio="xMidYMid meet">

<g transform="translate(0.000000,279.000000) scale(0.100000,-0.100000)"
fill="#FFFFFF" stroke="#000000" stroke-width="6">
<path d="M442 2755 c-25 -11 -39 -27 -54 -64 -20 -46 -26 -51 -78 -70 -75 -28
-103 -51 -131 -109 -22 -44 -24 -61 -28 -297 l-4 -250 -41 -30 c-86 -64 -107
-130 -88 -280 47 -373 333 -678 704 -751 l86 -17 7 -106 c16 -230 91 -399 242
-542 94 -90 205 -156 323 -195 82 -26 652 -33 773 -9 249 49 499 278 581 530
24 76 35 225 36 485 0 129 3 245 6 256 4 17 21 26 72 39 231 62 399 216 469
429 21 67 26 101 27 196 2 203 -45 322 -183 460 -133 134 -247 187 -422 197
-192 11 -356 -52 -494 -191 -126 -127 -185 -269 -186 -450 -1 -114 15 -185 68
-295 37 -77 59 -109 122 -171 89 -89 213 -158 324 -180 l67 -14 0 -180 c-1
-100 -5 -249 -9 -332 -8 -134 -13 -160 -40 -228 -64 -160 -171 -282 -308 -354
-144 -74 -161 -77 -488 -76 -315 0 -358 5 -459 54 -234 111 -377 337 -387 610
l-3 65 75 16 c212 45 359 126 497 273 176 189 277 531 202 681 -15 29 -42 62
-66 80 l-41 30 -5 245 c-4 218 -6 250 -24 290 -25 54 -78 103 -131 120 -49 16
-61 26 -77 65 -7 17 -28 43 -45 58 -30 25 -39 27 -125 27 -78 0 -100 -4 -137
-23 -61 -33 -101 -92 -107 -161 -5 -67 9 -112 53 -164 44 -51 88 -66 190 -66
100 0 134 16 163 78 28 59 40 65 69 32 23 -27 23 -30 23 -265 l0 -238 -37 -24
c-50 -32 -80 -79 -93 -147 -27 -135 -41 -185 -66 -237 -79 -160 -268 -255
-448 -226 -199 33 -332 167 -371 376 -32 165 -46 194 -120 245 l-43 30 5 197
c5 205 15 292 36 305 26 16 46 8 56 -25 6 -18 27 -49 47 -68 35 -34 36 -34
122 -33 106 1 165 24 208 80 27 35 29 43 29 130 0 88 -1 94 -30 130 -49 60
-86 74 -190 74 -56 -1 -103 -6 -123 -15z m200 -145 c47 -57 3 -120 -83 -120
l-49 0 0 76 0 76 57 -4 c43 -4 61 -10 75 -28z m608 -45 l0 -75 -49 0 c-64 0
-101 28 -101 75 0 47 37 75 101 75 l49 0 0 -75z m1554 -85 c144 -21 279 -128
356 -280 37 -73 43 -96 47 -165 7 -104 -11 -213 -45 -283 -38 -78 -140 -179
-227 -224 -92 -47 -161 -62 -273 -56 -82 4 -99 8 -174 46 -308 152 -391 521
-180 789 39 49 147 128 207 151 76 30 177 38 289 22z m-2538 -674 c26 -26 34
-43 34 -69 0 -126 69 -277 174 -381 118 -118 241 -169 406 -170 167 -1 310 62
422 184 77 83 121 176 148 310 27 138 26 136 60 150 25 10 33 9 59 -9 16 -12
32 -34 36 -50 8 -37 -10 -174 -31 -237 -60 -179 -203 -343 -377 -430 -407
-205 -912 32 -1027 482 -32 124 -25 207 19 241 25 20 41 15 77 -21z"/>
</g>
</svg>
